<svg width="24" height="20" viewBox="0 0 24 20" fill="none" xmlns="http://www.w3.org/2000/svg">
<g clip-path="url(#clip0_94_11038)">
<path d="M4.36412 19.9006V18.5769C4.36412 18.0694 4.07599 17.7385 3.58211 17.7385C3.33522 17.7385 3.0677 17.8267 2.88249 18.1136C2.73851 17.8709 2.53277 17.7385 2.22411 17.7385C2.01827 17.7385 1.81262 17.8046 1.64793 18.0474V17.7826H1.21582V19.9006H1.64793V18.7313C1.64793 18.3563 1.83315 18.1797 2.12128 18.1797C2.40923 18.1797 2.55339 18.3783 2.55339 18.7313V19.9006H2.9855V18.7313C2.9855 18.3563 3.19115 18.1797 3.45866 18.1797C3.7468 18.1797 3.89077 18.3783 3.89077 18.7313V19.9006H4.36412ZM10.7634 17.7826H10.0638V17.1428H9.63172V17.7826H9.24076V18.2017H9.63163V19.1726C9.63163 19.658 9.81685 19.9447 10.3107 19.9447C10.4959 19.9447 10.7016 19.8786 10.8458 19.7904L10.7222 19.3932C10.5988 19.4814 10.4548 19.5035 10.3519 19.5035C10.1461 19.5035 10.0638 19.3712 10.0638 19.1505V18.2017H10.7634V17.7826ZM14.4261 17.7384C14.1792 17.7384 14.0146 17.8709 13.9117 18.0474V17.7826H13.4796V19.9006H13.9117V18.7093C13.9117 18.3563 14.0556 18.1577 14.3232 18.1577C14.4054 18.1577 14.5084 18.1798 14.5907 18.2018L14.7141 17.7606C14.6318 17.7385 14.5084 17.7385 14.4261 17.7385M8.89095 17.9592C8.68512 17.8047 8.39707 17.7386 8.08841 17.7386C7.59463 17.7386 7.26544 18.0033 7.26544 18.4225C7.26544 18.7756 7.51233 18.9741 7.94444 19.0403L8.15018 19.0624C8.37655 19.1064 8.49999 19.1727 8.49999 19.283C8.49999 19.4374 8.3354 19.5478 8.04726 19.5478C7.75922 19.5478 7.53286 19.4374 7.38879 19.3272L7.18305 19.6801C7.40941 19.8566 7.71807 19.9448 8.02664 19.9448C8.60282 19.9448 8.9321 19.6581 8.9321 19.2609C8.9321 18.8858 8.66459 18.6873 8.25301 18.6211L8.04726 18.599C7.86205 18.5769 7.71807 18.5329 7.71807 18.4005C7.71807 18.246 7.86205 18.1578 8.08841 18.1578C8.3354 18.1578 8.58229 18.2681 8.70574 18.3343L8.89095 17.9592ZM20.3728 17.7386C20.1258 17.7386 19.9612 17.871 19.8583 18.0475V17.7827H19.4262V19.9007H19.8583V18.7094C19.8583 18.3564 20.0023 18.1578 20.2698 18.1578C20.3521 18.1578 20.4551 18.1799 20.5374 18.2019L20.6608 17.7607C20.5785 17.7386 20.4551 17.7386 20.3728 17.7386ZM14.8582 18.8417C14.8582 19.4815 15.2697 19.9448 15.9076 19.9448C16.1957 19.9448 16.4014 19.8787 16.6071 19.7022L16.4014 19.3272C16.2368 19.4595 16.0722 19.5256 15.887 19.5256C15.5372 19.5256 15.2903 19.2609 15.2903 18.8417C15.2903 18.4446 15.5372 18.1798 15.887 18.1578C16.0722 18.1578 16.2368 18.2239 16.4014 18.3564L16.6071 17.9813C16.4014 17.8047 16.1957 17.7386 15.9076 17.7386C15.2697 17.7386 14.8582 18.2019 14.8582 18.8417ZM18.8501 18.8417V17.7827H18.418V18.0475C18.2739 17.849 18.0682 17.7386 17.8006 17.7386C17.2451 17.7386 16.813 18.2019 16.813 18.8417C16.813 19.4815 17.2451 19.9448 17.8006 19.9448C18.0887 19.9448 18.2945 19.8346 18.418 19.636V19.9007H18.8501V18.8417ZM17.2656 18.8417C17.2656 18.4666 17.492 18.1578 17.8623 18.1578C18.2121 18.1578 18.4591 18.4446 18.4591 18.8417C18.4591 19.2168 18.2121 19.5256 17.8623 19.5256C17.492 19.5035 17.2656 19.2168 17.2656 18.8417ZM12.1009 17.7386C11.5248 17.7386 11.1132 18.1798 11.1132 18.8417C11.1132 19.5036 11.5247 19.9448 12.1215 19.9448C12.4095 19.9448 12.6976 19.8566 12.924 19.6581L12.7182 19.3272C12.5536 19.4595 12.3478 19.5478 12.1421 19.5478C11.8746 19.5478 11.6071 19.4154 11.5453 19.0402H13.0063V18.8638C13.0269 18.1798 12.6566 17.7386 12.1009 17.7386ZM12.1008 18.1357C12.3683 18.1357 12.5536 18.3123 12.5946 18.6432H11.5658C11.607 18.3564 11.7922 18.1357 12.1008 18.1357ZM22.8213 18.8417V16.9443H22.3892V18.0475C22.2451 17.849 22.0393 17.7386 21.7718 17.7386C21.2163 17.7386 20.7842 18.2019 20.7842 18.8417C20.7842 19.4815 21.2163 19.9448 21.7718 19.9448C22.06 19.9448 22.2657 19.8346 22.3892 19.636V19.9007H22.8213V18.8417ZM21.2369 18.8417C21.2369 18.4666 21.4632 18.1578 21.8336 18.1578C22.1834 18.1578 22.4303 18.4446 22.4303 18.8417C22.4303 19.2168 22.1834 19.5256 21.8336 19.5256C21.4632 19.5035 21.2369 19.2168 21.2369 18.8417ZM6.79199 18.8417V17.7827H6.35988V18.0475C6.21582 17.849 6.01007 17.7386 5.74256 17.7386C5.187 17.7386 4.75489 18.2019 4.75489 18.8417C4.75489 19.4815 5.187 19.9448 5.74256 19.9448C6.03069 19.9448 6.23644 19.8346 6.35988 19.636V19.9007H6.79199V18.8417ZM5.187 18.8417C5.187 18.4666 5.41337 18.1578 5.78371 18.1578C6.13352 18.1578 6.3805 18.4446 6.3805 18.8417C6.3805 19.2168 6.13352 19.5256 5.78371 19.5256C5.41337 19.5035 5.187 19.2168 5.187 18.8417Z" fill="black"/>
<path d="M8.74707 1.69873H15.2287V14.1863H8.74707V1.69873Z" fill="#FF5F00"/>
<path d="M9.15863 7.94261C9.15863 5.40543 10.2697 3.15497 11.9776 1.69879C10.7225 0.639799 9.1381 0 7.40967 0C3.31476 0 0.00195312 3.55206 0.00195312 7.94261C0.00195312 12.3331 3.31476 15.8852 7.40957 15.8852C9.13801 15.8852 10.7224 15.2454 11.9776 14.1863C10.2697 12.7523 9.15863 10.4798 9.15863 7.94261Z" fill="#EB001B"/>
<path d="M23.9736 7.94261C23.9736 12.3331 20.6608 15.8852 16.566 15.8852C14.8376 15.8852 13.2532 15.2454 11.998 14.1863C13.7265 12.7303 14.8171 10.4798 14.8171 7.94261C14.8171 5.40543 13.7059 3.15497 11.998 1.69879C13.2531 0.639799 14.8376 0 16.566 0C20.6608 0 23.9736 3.57417 23.9736 7.94261Z" fill="#F79E1B"/>
</g>
<defs>
<clipPath id="clip0_94_11038">
<rect width="24" height="20" fill="white"/>
</clipPath>
</defs>
</svg>
