<svg width="22" height="22" viewBox="0 0 22 22" fill="none" xmlns="http://www.w3.org/2000/svg">
<path d="M9.00651 1.10377C7.60495 0.650058 6.08132 1.28116 5.41107 2.59306L4.60529 4.17023C4.50955 4.35763 4.35714 4.51004 4.16974 4.60578L2.59257 5.41156C1.28067 6.08181 0.64957 7.60544 1.10328 9.007L1.64874 10.692C1.71355 10.8922 1.71355 11.1078 1.64874 11.308L1.10328 12.993C0.64957 14.3946 1.28067 15.9182 2.59257 16.5885L4.16974 17.3942C4.35714 17.49 4.50955 17.6424 4.60529 17.8298L5.41107 19.407C6.08132 20.7189 7.60495 21.35 9.00651 20.8963L10.6915 20.3508C10.8917 20.286 11.1073 20.286 11.3075 20.3508L12.9925 20.8963C14.3941 21.35 15.9177 20.7189 16.588 19.407L17.3937 17.8298C17.4895 17.6424 17.6419 17.49 17.8293 17.3942L19.4065 16.5885C20.7184 15.9182 21.3495 14.3946 20.8958 12.993L20.3503 11.308C20.2855 11.1078 20.2855 10.8922 20.3503 10.692L20.8958 9.007C21.3495 7.60544 20.7184 6.08181 19.4065 5.41156L17.8293 4.60578C17.6419 4.51004 17.4895 4.35763 17.3937 4.17023L16.588 2.59306C15.9177 1.28116 14.3941 0.650058 12.9925 1.10377L11.3075 1.64923C11.1073 1.71403 10.8917 1.71404 10.6915 1.64923L9.00651 1.10377ZM5.75928 10.7573L7.1735 9.343L10.0019 12.1715L15.6588 6.51465L17.073 7.92886L10.0019 14.9999L5.75928 10.7573Z" fill="#007200"/>
</svg>
